<?xml version="1.0" encoding="UTF-8"?>
<svg width="100%" viewBox="0 0 440 170" fill="none" xmlns="http://www.w3.org/2000/svg" style="max-width: 440px; display: block; margin: 0 auto;">
  <style>
    .title { font-family: 'Segoe UI', Ubuntu, sans-serif; font-weight: 700; font-size: 15px; fill: #f8f8f2; }
    .lang-name { font-family: 'Segoe UI', Ubuntu, sans-serif; font-weight: 600; font-size: 11.5px; fill: #f8f8f2; }
    .lang-percent { font-family: 'Segoe UI', Ubuntu, sans-serif; font-weight: 500; font-size: 11px; fill: #6272a4; }
    .glow { filter: drop-shadow(0px 0px 8px rgba(139, 233, 253, 0.3)); }
  </style>
  <defs>
    <linearGradient id="lang-card-grad" x1="0%" y1="0%" x2="100%" y2="100%">
      <stop offset="0%" stop-color="#282a36" />
      <stop offset="100%" stop-color="#1e1f29" />
    </linearGradient>
    <linearGradient id="lang-border-grad" x1="0%" y1="0%" x2="100%" y2="0%">
      <stop offset="0%" stop-color="#8be9fd" />
      <stop offset="50%" stop-color="#bd93f9" />
      <stop offset="100%" stop-color="#ff79c6" />
    </linearGradient>
    <clipPath id="bar-clip">
      <rect x="24" y="48" width="392" height="10" rx="5" />
    </clipPath>
  </defs>

  <rect x="1.5" y="1.5" width="437" height="167" rx="14" fill="url(#lang-card-grad)" stroke="url(#lang-border-grad)" stroke-width="1.8" class="glow" />
  <text x="24" y="34" class="title">Most Used Languages</text>
  <g clip-path="url(#bar-clip)">
    <rect x="24" y="48" width="170.48080000000002" height="10" fill="#f1e05a" />
    <rect x="194.48080000000002" y="48" width="128.8896" height="10" fill="#3178c6" />
    <rect x="323.3704" y="48" width="35.7112" height="10" fill="#e34c26" />
    <rect x="359.08160000000004" y="48" width="28.419999999999998" height="10" fill="#663399" />
    <rect x="387.50160000000005" y="48" width="11.2896" height="10" fill="#c6538c" />
    <rect x="398.79120000000006" y="48" width="11.1328" height="10" fill="#1d365d" />
  </g>
  <g transform="translate(24, 86)">
      <circle cx="5" cy="5" r="5" fill="#f1e05a" />
      <text x="17" y="9" class="lang-name">JavaScript</text>
      <text x="99" y="9" class="lang-percent">43.49%</text>
    </g>
    <g transform="translate(230, 86)">
      <circle cx="5" cy="5" r="5" fill="#3178c6" />
      <text x="17" y="9" class="lang-name">TypeScript</text>
      <text x="99" y="9" class="lang-percent">32.88%</text>
    </g>
    <g transform="translate(24, 110)">
      <circle cx="5" cy="5" r="5" fill="#e34c26" />
      <text x="17" y="9" class="lang-name">HTML</text>
      <text x="54" y="9" class="lang-percent">9.11%</text>
    </g>
    <g transform="translate(230, 110)">
      <circle cx="5" cy="5" r="5" fill="#663399" />
      <text x="17" y="9" class="lang-name">CSS</text>
      <text x="46.5" y="9" class="lang-percent">7.25%</text>
    </g>
    <g transform="translate(24, 134)">
      <circle cx="5" cy="5" r="5" fill="#c6538c" />
      <text x="17" y="9" class="lang-name">SCSS</text>
      <text x="54" y="9" class="lang-percent">2.88%</text>
    </g>
    <g transform="translate(230, 134)">
      <circle cx="5" cy="5" r="5" fill="#1d365d" />
      <text x="17" y="9" class="lang-name">Less</text>
      <text x="54" y="9" class="lang-percent">2.84%</text>
    </g>
</svg>