<?xml version="1.0" encoding="UTF-8"?>
<svg width="100%" viewBox="0 0 440 168" fill="none" xmlns="http://www.w3.org/2000/svg" style="max-width: 440px; display: block; margin: 0 auto;">
  <style>
    .title { font-family: 'Segoe UI', Inter, -apple-system, sans-serif; font-weight: 700; font-size: 15px; fill: #f8fafc; letter-spacing: 0.3px; }
    .lang-name { font-family: 'Segoe UI', Inter, -apple-system, sans-serif; font-weight: 600; font-size: 12px; fill: #e2e8f0; }
    .lang-percent { font-family: 'Segoe UI', Inter, -apple-system, sans-serif; font-weight: 500; font-size: 11.5px; fill: #64748b; }
    .glow { filter: drop-shadow(0px 8px 24px rgba(0, 0, 0, 0.5)); }
  </style>
  <defs>
    <linearGradient id="bg-grad-lang" x1="0%" y1="0%" x2="100%" y2="100%">
      <stop offset="0%" stop-color="#0f1117" />
      <stop offset="100%" stop-color="#161923" />
    </linearGradient>
    <linearGradient id="border-lang" x1="0%" y1="0%" x2="100%" y2="0%">
      <stop offset="0%" stop-color="#38bdf8" stop-opacity="0.6" />
      <stop offset="50%" stop-color="#818cf8" stop-opacity="0.6" />
      <stop offset="100%" stop-color="#c084fc" stop-opacity="0.6" />
    </linearGradient>
    <clipPath id="bar-clip">
      <rect x="24" y="52" width="392" height="8" rx="4" />
    </clipPath>
  </defs>

  <rect x="1" y="1" width="438" height="166" rx="14" fill="url(#bg-grad-lang)" stroke="url(#border-lang)" stroke-width="1.5" class="glow" />
  <text x="24" y="34" class="title">Most Used Languages</text>
  <path d="M24 43 H416" stroke="rgba(255, 255, 255, 0.08)" stroke-width="1" stroke-linecap="round" />
  <g clip-path="url(#bar-clip)">
    <rect x="24" y="52" width="173.264" height="8" fill="#f1fa8c" />
    <rect x="197.264" y="52" width="91.336" height="8" fill="#3178c6" />
    <rect x="288.6" y="52" width="72.912" height="8" fill="#e34f26" />
    <rect x="361.51200000000006" y="52" width="18.424" height="8" fill="#bd93f9" />
    <rect x="379.93600000000004" y="52" width="9.016" height="8" fill="#38bdf8" />
    <rect x="388.95200000000006" y="52" width="9.016" height="8" fill="#f34b7d" />
  </g>
  <g transform="translate(24, 88)">
      <circle cx="5" cy="5" r="4.5" fill="#f1fa8c" />
      <text x="17" y="9" class="lang-name">JavaScript</text>
      <text x="96" y="9" class="lang-percent">44.2%</text>
    </g>
    <g transform="translate(230, 88)">
      <circle cx="5" cy="5" r="4.5" fill="#3178c6" />
      <text x="17" y="9" class="lang-name">TypeScript</text>
      <text x="96" y="9" class="lang-percent">23.3%</text>
    </g>
    <g transform="translate(24, 112)">
      <circle cx="5" cy="5" r="4.5" fill="#e34f26" />
      <text x="17" y="9" class="lang-name">HTML</text>
      <text x="52.8" y="9" class="lang-percent">18.6%</text>
    </g>
    <g transform="translate(230, 112)">
      <circle cx="5" cy="5" r="4.5" fill="#bd93f9" />
      <text x="17" y="9" class="lang-name">CSS</text>
      <text x="45.6" y="9" class="lang-percent">4.7%</text>
    </g>
    <g transform="translate(24, 136)">
      <circle cx="5" cy="5" r="4.5" fill="#38bdf8" />
      <text x="17" y="9" class="lang-name">Hack</text>
      <text x="52.8" y="9" class="lang-percent">2.3%</text>
    </g>
    <g transform="translate(230, 136)">
      <circle cx="5" cy="5" r="4.5" fill="#f34b7d" />
      <text x="17" y="9" class="lang-name">C++</text>
      <text x="45.6" y="9" class="lang-percent">2.3%</text>
    </g>
</svg>