<?xml version="1.0" encoding="UTF-8"?>
<svg width="100%" viewBox="0 0 440 170" fill="none" xmlns="http://www.w3.org/2000/svg" style="max-width: 440px; display: block; margin: 0 auto;">
  <style>
    .title { font-family: 'Segoe UI', Ubuntu, sans-serif; font-weight: 700; font-size: 15px; fill: #f8f8f2; }
    .lang-name { font-family: 'Segoe UI', Ubuntu, sans-serif; font-weight: 600; font-size: 11.5px; fill: #f8f8f2; }
    .lang-percent { font-family: 'Segoe UI', Ubuntu, sans-serif; font-weight: 500; font-size: 11px; fill: #6272a4; }
    .glow { filter: drop-shadow(0px 0px 8px rgba(139, 233, 253, 0.3)); }
  </style>
  <defs>
    <linearGradient id="lang-card-grad" x1="0%" y1="0%" x2="100%" y2="100%">
      <stop offset="0%" stop-color="#282a36" />
      <stop offset="100%" stop-color="#1e1f29" />
    </linearGradient>
    <linearGradient id="lang-border-grad" x1="0%" y1="0%" x2="100%" y2="0%">
      <stop offset="0%" stop-color="#8be9fd" />
      <stop offset="50%" stop-color="#bd93f9" />
      <stop offset="100%" stop-color="#ff79c6" />
    </linearGradient>
    <clipPath id="bar-clip">
      <rect x="24" y="48" width="392" height="10" rx="5" />
    </clipPath>
  </defs>

  <rect x="1.5" y="1.5" width="437" height="167" rx="14" fill="url(#lang-card-grad)" stroke="url(#lang-border-grad)" stroke-width="1.8" class="glow" />
  <text x="24" y="34" class="title">Most Used Languages</text>
  <g clip-path="url(#bar-clip)">
    <rect x="24" y="48" width="171.57840000000002" height="10" fill="#f1fa8c" />
    <rect x="195.57840000000002" y="48" width="133.39759999999998" height="10" fill="#3178c6" />
    <rect x="328.976" y="48" width="35.672" height="10" fill="#e34f26" />
    <rect x="364.648" y="48" width="28.1064" height="10" fill="#bd93f9" />
    <rect x="392.75440000000003" y="48" width="11.6816" height="10" fill="#ff79c6" />
    <rect x="404.43600000000004" y="48" width="11.524799999999999" height="10" fill="#8be9fd" />
  </g>
  <g transform="translate(24, 86)">
      <circle cx="5" cy="5" r="5" fill="#f1fa8c" />
      <text x="17" y="9" class="lang-name">JavaScript</text>
      <text x="99" y="9" class="lang-percent">43.77%</text>
    </g>
    <g transform="translate(230, 86)">
      <circle cx="5" cy="5" r="5" fill="#3178c6" />
      <text x="17" y="9" class="lang-name">TypeScript</text>
      <text x="99" y="9" class="lang-percent">34.03%</text>
    </g>
    <g transform="translate(24, 110)">
      <circle cx="5" cy="5" r="5" fill="#e34f26" />
      <text x="17" y="9" class="lang-name">HTML</text>
      <text x="54" y="9" class="lang-percent">9.1%</text>
    </g>
    <g transform="translate(230, 110)">
      <circle cx="5" cy="5" r="5" fill="#bd93f9" />
      <text x="17" y="9" class="lang-name">CSS</text>
      <text x="46.5" y="9" class="lang-percent">7.17%</text>
    </g>
    <g transform="translate(24, 134)">
      <circle cx="5" cy="5" r="5" fill="#ff79c6" />
      <text x="17" y="9" class="lang-name">SCSS</text>
      <text x="54" y="9" class="lang-percent">2.98%</text>
    </g>
    <g transform="translate(230, 134)">
      <circle cx="5" cy="5" r="5" fill="#8be9fd" />
      <text x="17" y="9" class="lang-name">Less</text>
      <text x="54" y="9" class="lang-percent">2.94%</text>
    </g>
</svg>