<?xml version="1.0" encoding="UTF-8"?>
<svg width="100%" viewBox="0 0 840 216" fill="none" xmlns="http://www.w3.org/2000/svg" style="max-width: 840px; display: block; margin: 0 auto;">
  <style>
    .title { font-family: 'Segoe UI', Inter, -apple-system, sans-serif; font-weight: 700; font-size: 15px; fill: #f8fafc; letter-spacing: 0.3px; }
    .glow { filter: drop-shadow(0px 8px 24px rgba(0, 0, 0, 0.5)); }
  </style>
  <defs>
    <linearGradient id="bg-grad-repos" x1="0%" y1="0%" x2="100%" y2="100%">
      <stop offset="0%" stop-color="#0f1117" />
      <stop offset="100%" stop-color="#161923" />
    </linearGradient>
    <linearGradient id="border-repos" x1="0%" y1="0%" x2="100%" y2="0%">
      <stop offset="0%" stop-color="#38bdf8" stop-opacity="0.6" />
      <stop offset="50%" stop-color="#818cf8" stop-opacity="0.6" />
      <stop offset="100%" stop-color="#34d399" stop-opacity="0.6" />
    </linearGradient>
  </defs>

  <rect x="1" y="1" width="838" height="214" rx="14" fill="url(#bg-grad-repos)" stroke="url(#border-repos)" stroke-width="1.5" class="glow" />
  <text x="24" y="34" class="title">Top Contributed &amp; Featured Repositories</text>
  <path d="M24 44 H816" stroke="rgba(255, 255, 255, 0.08)" stroke-width="1" stroke-linecap="round" />
  <g transform="translate(16, 50)">
      <rect x="0" y="0" width="398" height="66" rx="10" fill="#131620" stroke="rgba(255, 255, 255, 0.08)" stroke-width="1" />
      <text x="14" y="24" font-family="'Segoe UI', Inter, -apple-system, sans-serif" font-weight="700" font-size="13px" fill="#38bdf8">TheLunatic1 / Glyph</text>
      <text x="14" y="42" font-family="'Segoe UI', Inter, -apple-system, sans-serif" font-weight="400" font-size="11px" fill="#94a3b8">Glyph is a sleek, modern desktop application d...</text>
      <circle cx="18" cy="54" r="4.5" fill="#f1e05a" />
      <text x="28" y="57" font-family="'Segoe UI', Inter, -apple-system, sans-serif" font-weight="600" font-size="10.5px" fill="#e2e8f0">JavaScript</text>
      <g transform="translate(330, 46)">
        <svg width="12" height="12" viewBox="0 0 16 16" fill="#fbbf24"><path d="M8 .25a.75.75 0 0 1 .673.418l1.882 3.815 4.21.612a.75.75 0 0 1 .416 1.279l-3.046 2.97.719 4.192a.75.75 0 0 1-1.088-.791L8 12.347l-3.766 1.98a.75.75 0 0 1-1.088-.79l.72-4.194L.818 6.374a.75.75 0 0 1 .416-1.28l4.21-.611L7.327.668A.75.75 0 0 1 8 .25Z"/></svg>
        <text x="16" y="10" font-family="'Segoe UI', Inter, -apple-system, sans-serif" font-weight="600" font-size="11px" fill="#f8fafc">10</text>
      </g>
    </g>
  <g transform="translate(426, 50)">
      <rect x="0" y="0" width="398" height="66" rx="10" fill="#131620" stroke="rgba(255, 255, 255, 0.08)" stroke-width="1" />
      <text x="14" y="24" font-family="'Segoe UI', Inter, -apple-system, sans-serif" font-weight="700" font-size="13px" fill="#38bdf8">TheLunatic1 / IV_Fluid_Calculator_V2</text>
      <text x="14" y="42" font-family="'Segoe UI', Inter, -apple-system, sans-serif" font-weight="400" font-size="11px" fill="#94a3b8">A clean and modern IV Drop Rate Calculator bui...</text>
      <circle cx="18" cy="54" r="4.5" fill="#3178c6" />
      <text x="28" y="57" font-family="'Segoe UI', Inter, -apple-system, sans-serif" font-weight="600" font-size="10.5px" fill="#e2e8f0">TypeScript</text>
      <g transform="translate(330, 46)">
        <svg width="12" height="12" viewBox="0 0 16 16" fill="#fbbf24"><path d="M8 .25a.75.75 0 0 1 .673.418l1.882 3.815 4.21.612a.75.75 0 0 1 .416 1.279l-3.046 2.97.719 4.192a.75.75 0 0 1-1.088-.791L8 12.347l-3.766 1.98a.75.75 0 0 1-1.088-.79l.72-4.194L.818 6.374a.75.75 0 0 1 .416-1.28l4.21-.611L7.327.668A.75.75 0 0 1 8 .25Z"/></svg>
        <text x="16" y="10" font-family="'Segoe UI', Inter, -apple-system, sans-serif" font-weight="600" font-size="11px" fill="#f8fafc">6</text>
      </g>
    </g>
  <g transform="translate(16, 126)">
      <rect x="0" y="0" width="398" height="66" rx="10" fill="#131620" stroke="rgba(255, 255, 255, 0.08)" stroke-width="1" />
      <text x="14" y="24" font-family="'Segoe UI', Inter, -apple-system, sans-serif" font-weight="700" font-size="13px" fill="#38bdf8">TheLunatic1 / jobpulse-ai-frontend</text>
      <text x="14" y="42" font-family="'Segoe UI', Inter, -apple-system, sans-serif" font-weight="400" font-size="11px" fill="#94a3b8">A stunning full-stack AI-powered job portal wi...</text>
      <circle cx="18" cy="54" r="4.5" fill="#3178c6" />
      <text x="28" y="57" font-family="'Segoe UI', Inter, -apple-system, sans-serif" font-weight="600" font-size="10.5px" fill="#e2e8f0">TypeScript</text>
      <g transform="translate(330, 46)">
        <svg width="12" height="12" viewBox="0 0 16 16" fill="#fbbf24"><path d="M8 .25a.75.75 0 0 1 .673.418l1.882 3.815 4.21.612a.75.75 0 0 1 .416 1.279l-3.046 2.97.719 4.192a.75.75 0 0 1-1.088-.791L8 12.347l-3.766 1.98a.75.75 0 0 1-1.088-.79l.72-4.194L.818 6.374a.75.75 0 0 1 .416-1.28l4.21-.611L7.327.668A.75.75 0 0 1 8 .25Z"/></svg>
        <text x="16" y="10" font-family="'Segoe UI', Inter, -apple-system, sans-serif" font-weight="600" font-size="11px" fill="#f8fafc">5</text>
      </g>
    </g>
  <g transform="translate(426, 126)">
      <rect x="0" y="0" width="398" height="66" rx="10" fill="#131620" stroke="rgba(255, 255, 255, 0.08)" stroke-width="1" />
      <text x="14" y="24" font-family="'Segoe UI', Inter, -apple-system, sans-serif" font-weight="700" font-size="13px" fill="#38bdf8">TheLunatic1 / RNT</text>
      <text x="14" y="42" font-family="'Segoe UI', Inter, -apple-system, sans-serif" font-weight="400" font-size="11px" fill="#94a3b8">Expense Tracker - React Native (Expo) ----- Pe...</text>
      <circle cx="18" cy="54" r="4.5" fill="#f1e05a" />
      <text x="28" y="57" font-family="'Segoe UI', Inter, -apple-system, sans-serif" font-weight="600" font-size="10.5px" fill="#e2e8f0">JavaScript</text>
      <g transform="translate(330, 46)">
        <svg width="12" height="12" viewBox="0 0 16 16" fill="#fbbf24"><path d="M8 .25a.75.75 0 0 1 .673.418l1.882 3.815 4.21.612a.75.75 0 0 1 .416 1.279l-3.046 2.97.719 4.192a.75.75 0 0 1-1.088-.791L8 12.347l-3.766 1.98a.75.75 0 0 1-1.088-.79l.72-4.194L.818 6.374a.75.75 0 0 1 .416-1.28l4.21-.611L7.327.668A.75.75 0 0 1 8 .25Z"/></svg>
        <text x="16" y="10" font-family="'Segoe UI', Inter, -apple-system, sans-serif" font-weight="600" font-size="11px" fill="#f8fafc">4</text>
      </g>
    </g>
</svg>