<svg width="100%" height="100%" viewBox="0 0 840 236" fill="none" xmlns="http://www.w3.org/2000/svg" style="max-width: 840px; display: block; margin: 0 auto;">
  <style>
    .title { font-family: 'Segoe UI', Ubuntu, sans-serif; font-weight: 700; font-size: 18px; fill: #f8f8f2; }
    .glow { filter: drop-shadow(0px 0px 8px rgba(139, 233, 253, 0.3)); }
  </style>
  <defs>
    <linearGradient id="repos-bg" x1="0%" y1="0%" x2="100%" y2="100%">
      <stop offset="0%" stop-color="#282a36" />
      <stop offset="100%" stop-color="#181920" />
    </linearGradient>
    <linearGradient id="repos-border" x1="0%" y1="0%" x2="100%" y2="0%">
      <stop offset="0%" stop-color="#8be9fd" />
      <stop offset="50%" stop-color="#bd93f9" />
      <stop offset="100%" stop-color="#50fa7b" />
    </linearGradient>
  </defs>

  <rect x="1.5" y="1.5" width="837" height="233" rx="16" fill="url(#repos-bg)" stroke="url(#repos-border)" stroke-width="2" class="glow" />
  <text x="28" y="38" class="title">⚡ Top Contributed & Featured Repositories</text>
  <path d="M28 48 H812" stroke="#44475a" stroke-width="1" stroke-linecap="round" />
  <g transform="translate(16, 56)">
      <rect x="0" y="0" width="398" height="74" rx="10" fill="#1e1f29" stroke="#44475a" stroke-width="1" />
      <text x="16" y="26" font-family="'Segoe UI', Ubuntu, sans-serif" font-weight="700" font-size="14.5" fill="#8be9fd">TheLunatic1 / Glyph</text>
      <text x="16" y="46" font-family="'Segoe UI', Ubuntu, sans-serif" font-weight="400" font-size="12" fill="#6272a4">Glyph is a sleek, modern desktop application...</text>
      <circle cx="20" cy="62" r="5" fill="#f1e05a" />
      <text x="32" y="65" font-family="'Segoe UI', Ubuntu, sans-serif" font-weight="600" font-size="11.5" fill="#f8f8f2">JavaScript</text>
      <g transform="translate(320, 55)">
        <svg width="13" height="13" viewBox="0 0 16 16" fill="#f1fa8c"><path d="M8 .25a.75.75 0 0 1 .673.418l1.882 3.815 4.21.612a.75.75 0 0 1 .416 1.279l-3.046 2.97.719 4.192a.75.75 0 0 1-1.088.791L8 12.347l-3.766 1.98a.75.75 0 0 1-1.088-.79l.72-4.194L.818 6.374a.75.75 0 0 1 .416-1.28l4.21-.611L7.327.668A.75.75 0 0 1 8 .25Z"/></svg>
        <text x="17" y="11" font-family="'Segoe UI', Ubuntu, sans-serif" font-weight="600" font-size="12" fill="#f8f8f2">10</text>
      </g>
    </g>
  <g transform="translate(426, 56)">
      <rect x="0" y="0" width="398" height="74" rx="10" fill="#1e1f29" stroke="#44475a" stroke-width="1" />
      <text x="16" y="26" font-family="'Segoe UI', Ubuntu, sans-serif" font-weight="700" font-size="14.5" fill="#8be9fd">TheLunatic1 / IV_Fluid_Calculator_V2</text>
      <text x="16" y="46" font-family="'Segoe UI', Ubuntu, sans-serif" font-weight="400" font-size="12" fill="#6272a4">A clean and modern IV Drop Rate Calculator b...</text>
      <circle cx="20" cy="62" r="5" fill="#3178c6" />
      <text x="32" y="65" font-family="'Segoe UI', Ubuntu, sans-serif" font-weight="600" font-size="11.5" fill="#f8f8f2">TypeScript</text>
      <g transform="translate(320, 55)">
        <svg width="13" height="13" viewBox="0 0 16 16" fill="#f1fa8c"><path d="M8 .25a.75.75 0 0 1 .673.418l1.882 3.815 4.21.612a.75.75 0 0 1 .416 1.279l-3.046 2.97.719 4.192a.75.75 0 0 1-1.088.791L8 12.347l-3.766 1.98a.75.75 0 0 1-1.088-.79l.72-4.194L.818 6.374a.75.75 0 0 1 .416-1.28l4.21-.611L7.327.668A.75.75 0 0 1 8 .25Z"/></svg>
        <text x="17" y="11" font-family="'Segoe UI', Ubuntu, sans-serif" font-weight="600" font-size="12" fill="#f8f8f2">6</text>
      </g>
    </g>
  <g transform="translate(16, 140)">
      <rect x="0" y="0" width="398" height="74" rx="10" fill="#1e1f29" stroke="#44475a" stroke-width="1" />
      <text x="16" y="26" font-family="'Segoe UI', Ubuntu, sans-serif" font-weight="700" font-size="14.5" fill="#8be9fd">TheLunatic1 / jobpulse-ai-frontend</text>
      <text x="16" y="46" font-family="'Segoe UI', Ubuntu, sans-serif" font-weight="400" font-size="12" fill="#6272a4">A stunning full-stack AI-powered job portal ...</text>
      <circle cx="20" cy="62" r="5" fill="#3178c6" />
      <text x="32" y="65" font-family="'Segoe UI', Ubuntu, sans-serif" font-weight="600" font-size="11.5" fill="#f8f8f2">TypeScript</text>
      <g transform="translate(320, 55)">
        <svg width="13" height="13" viewBox="0 0 16 16" fill="#f1fa8c"><path d="M8 .25a.75.75 0 0 1 .673.418l1.882 3.815 4.21.612a.75.75 0 0 1 .416 1.279l-3.046 2.97.719 4.192a.75.75 0 0 1-1.088.791L8 12.347l-3.766 1.98a.75.75 0 0 1-1.088-.79l.72-4.194L.818 6.374a.75.75 0 0 1 .416-1.28l4.21-.611L7.327.668A.75.75 0 0 1 8 .25Z"/></svg>
        <text x="17" y="11" font-family="'Segoe UI', Ubuntu, sans-serif" font-weight="600" font-size="12" fill="#f8f8f2">5</text>
      </g>
    </g>
  <g transform="translate(426, 140)">
      <rect x="0" y="0" width="398" height="74" rx="10" fill="#1e1f29" stroke="#44475a" stroke-width="1" />
      <text x="16" y="26" font-family="'Segoe UI', Ubuntu, sans-serif" font-weight="700" font-size="14.5" fill="#8be9fd">TheLunatic1 / RNT</text>
      <text x="16" y="46" font-family="'Segoe UI', Ubuntu, sans-serif" font-weight="400" font-size="12" fill="#6272a4">Expense Tracker – React Native (Expo) ----- ...</text>
      <circle cx="20" cy="62" r="5" fill="#f1e05a" />
      <text x="32" y="65" font-family="'Segoe UI', Ubuntu, sans-serif" font-weight="600" font-size="11.5" fill="#f8f8f2">JavaScript</text>
      <g transform="translate(320, 55)">
        <svg width="13" height="13" viewBox="0 0 16 16" fill="#f1fa8c"><path d="M8 .25a.75.75 0 0 1 .673.418l1.882 3.815 4.21.612a.75.75 0 0 1 .416 1.279l-3.046 2.97.719 4.192a.75.75 0 0 1-1.088.791L8 12.347l-3.766 1.98a.75.75 0 0 1-1.088-.79l.72-4.194L.818 6.374a.75.75 0 0 1 .416-1.28l4.21-.611L7.327.668A.75.75 0 0 1 8 .25Z"/></svg>
        <text x="17" y="11" font-family="'Segoe UI', Ubuntu, sans-serif" font-weight="600" font-size="12" fill="#f8f8f2">4</text>
      </g>
    </g>
</svg>