<svg width="100%" height="100%" viewBox="0 0 840 160" fill="none" xmlns="http://www.w3.org/2000/svg" style="max-width: 840px; display: block; margin: 0 auto;">
  <defs>
    <linearGradient id="trophy-bg" x1="0%" y1="0%" x2="100%" y2="100%">
      <stop offset="0%" stop-color="#282a36" />
      <stop offset="100%" stop-color="#181920" />
    </linearGradient>
    <linearGradient id="trophy-border" x1="0%" y1="0%" x2="100%" y2="0%">
      <stop offset="0%" stop-color="#f1fa8c" />
      <stop offset="33%" stop-color="#50fa7b" />
      <stop offset="66%" stop-color="#ff79c6" />
      <stop offset="100%" stop-color="#8be9fd" />
    </linearGradient>
  </defs>

  <rect x="1.5" y="1.5" width="837" height="157" rx="16" fill="url(#trophy-bg)" stroke="url(#trophy-border)" stroke-width="2" />
  <g transform="translate(16, 16)">
      <rect x="0" y="0" width="186" height="128" rx="12" fill="#1e1f29" stroke="#f1fa8c" stroke-width="1.5" />
      <circle cx="93" cy="38" r="22" fill="#f1fa8c" fill-opacity="0.15" />
      <text x="93" y="44" font-size="22" text-anchor="middle">🏆</text>
      <text x="93" y="80" font-family="'Segoe UI', Ubuntu, sans-serif" font-weight="700" font-size="14" fill="#f8f8f2" text-anchor="middle">MultiLang Master</text>
      <rect x="53" y="88" width="80" height="18" rx="9" fill="#f1fa8c" fill-opacity="0.2" />
      <text x="93" y="101" font-family="'Segoe UI', Ubuntu, sans-serif" font-weight="600" font-size="11" fill="#f1fa8c" text-anchor="middle">Gold Tier</text>
    </g>
  <g transform="translate(218, 16)">
      <rect x="0" y="0" width="186" height="128" rx="12" fill="#1e1f29" stroke="#50fa7b" stroke-width="1.5" />
      <circle cx="93" cy="38" r="22" fill="#50fa7b" fill-opacity="0.15" />
      <text x="93" y="44" font-size="22" text-anchor="middle">🚀</text>
      <text x="93" y="80" font-family="'Segoe UI', Ubuntu, sans-serif" font-weight="700" font-size="14" fill="#f8f8f2" text-anchor="middle">Commit Beast</text>
      <rect x="53" y="88" width="80" height="18" rx="9" fill="#50fa7b" fill-opacity="0.2" />
      <text x="93" y="101" font-family="'Segoe UI', Ubuntu, sans-serif" font-weight="600" font-size="11" fill="#50fa7b" text-anchor="middle">Gold Tier</text>
    </g>
  <g transform="translate(420, 16)">
      <rect x="0" y="0" width="186" height="128" rx="12" fill="#1e1f29" stroke="#ff79c6" stroke-width="1.5" />
      <circle cx="93" cy="38" r="22" fill="#ff79c6" fill-opacity="0.15" />
      <text x="93" y="44" font-size="22" text-anchor="middle">🧠</text>
      <text x="93" y="80" font-family="'Segoe UI', Ubuntu, sans-serif" font-weight="700" font-size="14" fill="#f8f8f2" text-anchor="middle">AI & MERN Pioneer</text>
      <rect x="53" y="88" width="80" height="18" rx="9" fill="#ff79c6" fill-opacity="0.2" />
      <text x="93" y="101" font-family="'Segoe UI', Ubuntu, sans-serif" font-weight="600" font-size="11" fill="#ff79c6" text-anchor="middle">Platinum Tier</text>
    </g>
  <g transform="translate(622, 16)">
      <rect x="0" y="0" width="186" height="128" rx="12" fill="#1e1f29" stroke="#8be9fd" stroke-width="1.5" />
      <circle cx="93" cy="38" r="22" fill="#8be9fd" fill-opacity="0.15" />
      <text x="93" y="44" font-size="22" text-anchor="middle">🔥</text>
      <text x="93" y="80" font-family="'Segoe UI', Ubuntu, sans-serif" font-weight="700" font-size="14" fill="#f8f8f2" text-anchor="middle">Streak Legend</text>
      <rect x="53" y="88" width="80" height="18" rx="9" fill="#8be9fd" fill-opacity="0.2" />
      <text x="93" y="101" font-family="'Segoe UI', Ubuntu, sans-serif" font-weight="600" font-size="11" fill="#8be9fd" text-anchor="middle">Silver Tier</text>
    </g>
</svg>